<?xml version="1.0" encoding="UTF-8"?>
<svg width="165px" height="43px" viewBox="0 0 165 43" version="1.1" xmlns="http://www.w3.org/2000/svg" xmlns:xlink="http://www.w3.org/1999/xlink">
    <!-- Generator: Sketch 46.2 (44496) - http://www.bohemiancoding.com/sketch -->
    <title>logo</title>
    <desc>Created with Sketch.</desc>
    <defs></defs>
    <g id="Page-1" stroke="none" stroke-width="1" fill="none" fill-rule="evenodd">
        <g id="logo">
            <g id="Group-7">
                <text id="Zap" font-family="OpenSans-ExtraBold, Open Sans" font-size="24" font-weight="600" fill="#FFFFFF">
                    <tspan x="65" y="30">Zap </tspan>
                </text>
                <text id="IT!" font-family="OpenSans-ExtraBold, Open Sans" font-size="24" font-weight="600" fill="#D94E22">
                    <tspan x="111" y="30">IT! </tspan>
                </text>
                <g id="Page-1" fill="#FEFEFE">
                    <path d="M16.8578055,27.8983703 C14.0713987,27.8983703 11.8160825,25.6389112 11.8160825,22.8715919 C11.8160825,20.0949447 14.0713987,17.8448136 16.8578055,17.8448136 C19.6431731,17.8448136 21.8984893,20.0949447 21.8984893,22.8715919 C21.8984893,25.6389112 19.6431731,27.8983703 16.8578055,27.8983703 M36.8334637,18.3526736 C35.9386124,17.8448136 34.7132585,17.7308042 33.9233782,17.1814861 C32.903809,16.4870652 32.4267628,14.5489053 31.7200278,13.5435496 C30.6588859,12.0303338 28.6124722,9.49103344 26.4818739,10.6311275 C26.4818739,10.6311275 23.3420995,12.4449135 21.0982158,15.1085878 C20.6305235,15.7418582 19.8822158,15.3987936 19.8822158,15.3987936 C17.2111731,14.289793 14.4777713,15.1303532 13.3864893,15.5542609 C13.3864893,15.5542609 12.794079,15.7304573 12.3991389,15.3677001 C11.6913645,14.7665596 10.3828654,13.5642786 9.59298502,12.4148565 C9.59298502,12.4148565 9.21779186,11.9795478 9.17621921,11.232268 C9.1564722,10.9845567 9.17621921,10.6933144 9.26975767,10.3720152 C9.55141237,8.53750022 10.5803354,7.77052785 11.7547628,6.97349846 C11.7745098,6.95173302 11.8067286,6.94136853 11.8275149,6.92063955 C13.365703,5.8841904 14.8924585,4.86847024 15.1325406,2.8473944 C15.797703,-2.8634404 5.0096004,1.17974772 3.41840724,4.8591422 C3.00372006,5.68726506 2.84782263,6.58897582 3.12843801,7.51141556 C3.13883117,7.54250904 3.14922433,7.56323802 3.15857818,7.5943315 C3.36748075,8.28875243 3.60652348,8.94171539 3.68966878,9.57394937 C3.7613816,10.2372768 3.65848929,10.9016407 3.14922433,11.5960617 C3.13883117,11.6053897 -1.65345601,18.1453838 1.48631835,20.2079176 C1.48631835,20.2079176 4.58244143,22.084927 8.00283117,22.788676 C8.78231835,22.8923209 8.83324485,23.7111157 8.83324485,23.7111157 C9.13464656,26.5820799 11.1717064,28.5824267 12.0759115,29.3400711 C12.0759115,29.3400711 12.5030705,29.7753797 12.3773132,30.2936043 C12.2016688,31.1123991 11.8379081,32.5934849 11.2964243,33.775037 L11.1717064,34.0237848 C11.1519594,34.0548782 11.1415662,34.0870082 11.1207799,34.1170652 C10.1739628,35.8272063 8.1067628,35.4229911 6.54778844,35.0291404 C4.71755254,34.5731028 2.92057476,34.0756072 1.21505681,35.2675237 C-0.332485067,36.3557953 -0.270126092,37.6731222 0.665258523,38.8950958 C2.6607457,41.5380411 8.67838673,43.7674432 10.9752756,42.4501163 C11.2454978,42.2956854 11.4949337,42.0977236 11.7443696,41.8800693 C12.1393098,41.1545549 12.4199252,40.0465908 13.4800278,40.2010217 C13.4904209,40.2010217 13.8115696,40.2424796 14.3312278,40.2839376 C16.4212927,40.4290405 21.6064414,40.5119564 21.8569166,37.5373474 C21.8569166,37.5373474 22.0336004,33.9211763 21.0150705,30.5941745 C20.7344551,29.8582956 21.4297577,29.422987 21.4297577,29.422987 C23.820185,27.7947254 24.6111047,25.0481351 24.8397542,23.898713 C24.8397542,23.898713 25.016438,23.3172651 25.5360961,23.1721622 C26.4299081,22.9130499 28.1551731,22.4673768 29.5478568,22.4362833 C31.5017713,22.3854973 32.1877201,24.3754796 32.634626,25.9083879 C33.163638,27.7118095 33.6417235,29.5162674 35.5343184,30.3765202 C41.0011218,32.8733262 40.1894158,20.2804691 36.8334637,18.3526736" id="Fill-1"></path>
                </g>
            </g>
        </g>
    </g>
</svg>